<?xml version="1.0" encoding="UTF-8"?>
<svg xmlns="http://www.w3.org/2000/svg" xmlns:xlink="http://www.w3.org/1999/xlink" width="120px" height="120px" viewBox="0 0 120 120" version="1.1">
<g id="surface1">
<path style=" stroke:none;fill-rule:nonzero;fill:rgb(34.509804%,39.607843%,94.901961%);fill-opacity:1;" d="M 101.652344 21.140625 C 93.882812 17.503906 85.578125 14.863281 76.894531 13.359375 C 75.828125 15.289062 74.582031 17.878906 73.722656 19.945312 C 64.492188 18.554688 55.347656 18.554688 46.285156 19.945312 C 45.425781 17.878906 44.152344 15.289062 43.078125 13.359375 C 34.382812 14.863281 26.070312 17.515625 18.300781 21.160156 C 2.632812 44.835938 -1.613281 67.921875 0.507812 90.683594 C 10.902344 98.441406 20.972656 103.15625 30.871094 106.242188 C 33.316406 102.878906 35.496094 99.300781 37.375 95.53125 C 33.796875 94.171875 30.371094 92.496094 27.136719 90.546875 C 27.996094 89.910156 28.835938 89.246094 29.644531 88.5625 C 49.390625 97.796875 70.84375 97.796875 90.355469 88.5625 C 91.175781 89.246094 92.015625 89.910156 92.863281 90.546875 C 89.617188 92.503906 86.183594 94.183594 82.605469 95.542969 C 84.484375 99.300781 86.652344 102.886719 89.109375 106.25 C 99.019531 103.167969 109.097656 98.453125 119.488281 90.683594 C 121.980469 64.296875 115.234375 41.421875 101.652344 21.140625 Z M 40.066406 76.683594 C 34.136719 76.683594 29.277344 71.152344 29.277344 64.414062 C 29.277344 57.675781 34.035156 52.132812 40.066406 52.132812 C 46.097656 52.132812 50.957031 57.664062 50.855469 64.414062 C 50.863281 71.152344 46.097656 76.683594 40.066406 76.683594 Z M 79.933594 76.683594 C 74.007812 76.683594 69.144531 71.152344 69.144531 64.414062 C 69.144531 57.675781 73.902344 52.132812 79.933594 52.132812 C 85.964844 52.132812 90.824219 57.664062 90.722656 64.414062 C 90.722656 71.152344 85.964844 76.683594 79.933594 76.683594 Z M 79.933594 76.683594 "/>
</g>
</svg>
